<?xml version="1.0" encoding="UTF-8"?>
<mxfile host="app.diagrams.net" modified="2-database-read-replicas" agent="PlantUML Converter" version="1.0" etag="plantuml-diagram" type="device">
  <diagram id="plantuml-2-database-read-replicas" name="2-database-read-replicas">
    <mxGraphModel dx="1422" dy="794" grid="1" gridSize="10" guides="1" tooltips="1" connect="1" arrows="1" fold="1" page="1" pageScale="1" pageWidth="827" pageHeight="1169" math="0" shadow="0">
      <root>
        <mxCell id="0" />
        <mxCell id="1" parent="0" />
        <mxCell id="plantuml-container" value="" style="shape=image;html=1;verticalAlign=top;verticalLabelPosition=bottom;labelBackgroundColor=#ffffff;imageAspect=0;aspect=fixed;image=data:image/svg+xml,PHN2ZyB4bWxucz0iaHR0cDovL3d3dy53My5vcmcvMjAwMC9zdmciIHdpZHRoPSI0MDAiIGhlaWdodD0iMzAwIiB2aWV3Qm94PSIwIDAgNDAwIDMwMCI+CiAgPHJlY3Qgd2lkdGg9IjQwMCIgaGVpZ2h0PSIzMDAiIGZpbGw9IiNmOGY5ZmEiIHN0cm9rZT0iI2RlZTJlNiIvPgogIDx0ZXh0IHg9IjIwMCIgeT0iMTUwIiB0ZXh0LWFuY2hvcj0ibWlkZGxlIiBmb250LWZhbWlseT0iQXJpYWwiIGZvbnQtc2l6ZT0iMTQiIGZpbGw9IiM2Yzc1N2QiPgogICAgRGlhZ3JhbWEgUGxhbnRVTUw6IDItZGF0YWJhc2UtcmVhZC1yZXBsaWNhcwogIDwvdGV4dD4KICA8dGV4dCB4PSIyMDAiIHk9IjE3MCIgdGV4dC1hbmNob3I9Im1pZGRsZSIgZm9udC1mYW1pbHk9IkFyaWFsIiBmb250LXNpemU9IjEyIiBmaWxsPSIjNmM3NTdkIj4KICAgIChTVkcgbsOjbyBkaXNwb27DrXZlbCAtIHVzZSBvIGPDs2RpZ28gUGxhbnRVTUwgaW5jb3Jwb3JhZG8pCiAgPC90ZXh0Pgo8L3N2Zz4=;plantuml=QHN0YXJ0dW1sCiFpbmNsdWRlIGh0dHBzOi8vcmF3LmdpdGh1YnVzZXJjb250ZW50LmNvbS9wbGFudHVtbC1zdGRsaWIvQzQtUGxhbnRVTUwvbWFzdGVyL0M0X0NvbnRhaW5lci5wdW1sCgohZGVmaW5lIERFVklDT05TIGh0dHBzOi8vcmF3LmdpdGh1YnVzZXJjb250ZW50LmNvbS90dXBhZHIzL3BsYW50dW1sLWljb24tZm9udC1zcHJpdGVzL21hc3Rlci9kZXZpY29ucwohZGVmaW5lIEZPTlRBV0VTT01FIGh0dHBzOi8vcmF3LmdpdGh1YnVzZXJjb250ZW50LmNvbS90dXBhZHIzL3BsYW50dW1sLWljb24tZm9udC1zcHJpdGVzL21hc3Rlci9mb250LWF3ZXNvbWUtNQohaW5jbHVkZSBERVZJQ09OUy9yZWFjdC5wdW1sCiFpbmNsdWRlIERFVklDT05TL2phdmEucHVtbAohaW5jbHVkZSBERVZJQ09OUy9wb3N0Z3Jlc3FsLnB1bWwKIWluY2x1ZGUgRk9OVEFXRVNPTUUvdXNlcnMucHVtbAohaW5jbHVkZSBGT05UQVdFU09NRS9zZXJ2ZXIucHVtbAohaW5jbHVkZSBGT05UQVdFU09NRS9kYXRhYmFzZS5wdW1sCiFpbmNsdWRlIEZPTlRBV0VTT01FL3N5bmMucHVtbAoKdGl0bGUgRGF0YWJhc2UgUmVhZCBSZXBsaWNhcyBmb3IgU2NhbGluZyBSZWFkIE9wZXJhdGlvbnMKClBlcnNvbih1c2VycywgIlVzZXJzIiwgIkVuZCB1c2VycyBwZXJmb3JtaW5nIHJlYWQgYW5kIHdyaXRlIG9wZXJhdGlvbnMiLCAkc3ByaXRlPSJ1c2VycyIpCgpTeXN0ZW1fQm91bmRhcnkobGJfYm91bmRhcnksICJMb2FkIEJhbGFuY2luZyBMYXllciIpIHsKICAgIENvbnRhaW5lcihsb2FkX2JhbGFuY2VyLCAiTG9hZCBCYWxhbmNlciIsICJOR0lOWC9IQVByb3h5IiwgIkRpc3RyaWJ1dGVzIHJlcXVlc3RzIHdpdGggaGVhbHRoIGNoZWNrcyIsICRzcHJpdGU9InNlcnZlciIpCn0KClN5c3RlbV9Cb3VuZGFyeShhcHBfYm91bmRhcnksICJBcHBsaWNhdGlvbiBMYXllciIpIHsKICAgIENvbnRhaW5lcihhcHBfc2VydmVyXzEsICJBcHAgU2VydmVyIDEiLCAiSmF2YSBTcHJpbmcgQm9vdCIsICJNb25vbGl0aGljIGFwcGxpY2F0aW9uIHdpdGggcmVhZC93cml0ZSByb3V0aW5nIGxvZ2ljIiwgJHNwcml0ZT0iamF2YSIpCiAgICBDb250YWluZXIoYXBwX3NlcnZlcl8yLCAiQXBwIFNlcnZlciAyIiwgIkphdmEgU3ByaW5nIEJvb3QiLCAiSWRlbnRpY2FsIGluc3RhbmNlIHdpdGggZGF0YWJhc2Ugcm91dGluZyBjYXBhYmlsaXRpZXMiLCAkc3ByaXRlPSJqYXZhIikKfQoKU3lzdGVtX0JvdW5kYXJ5KGRhdGFfYm91bmRhcnksICJEYXRhIExheWVyIikgewogICAgQ29udGFpbmVyRGIocHJpbWFyeV9kYiwgIlByaW1hcnkgRGF0YWJhc2UiLCAiUG9zdGdyZVNRTCBNYXN0ZXIiLCAiSGFuZGxlcyBhbGwgd3JpdGUgb3BlcmF0aW9ucyBhbmQgY3JpdGljYWwgcmVhZHMiLCAkc3ByaXRlPSJwb3N0Z3Jlc3FsIikKICAgIENvbnRhaW5lckRiKHJlYWRfcmVwbGljYSwgIlJlYWQgUmVwbGljYSIsICJQb3N0Z3JlU1FMIFNsYXZlIiwgIkhhbmRsZXMgcmVhZC1vbmx5IHF1ZXJpZXMgZm9yIHNjYWxpbmciLCAkc3ByaXRlPSJkYXRhYmFzZSIpCn0KClN5c3RlbV9Cb3VuZGFyeShyZXBsaWNhdGlvbl9ib3VuZGFyeSwgIlJlcGxpY2F0aW9uIExheWVyIikgewogICAgQ29udGFpbmVyKHJlcGxpY2F0aW9uX3NlcnZpY2UsICJSZXBsaWNhdGlvbiBTZXJ2aWNlIiwgIlBvc3RncmVTUUwgU3RyZWFtaW5nIiwgIkFzeW5jaHJvbm91cyBkYXRhIHJlcGxpY2F0aW9uIGZyb20gbWFzdGVyIHRvIHNsYXZlIiwgJHNwcml0ZT0ic3luYyIpCn0KCicgVXNlciBpbnRlcmFjdGlvbnMKUmVsKHVzZXJzLCBsb2FkX2JhbGFuY2VyLCAiSFRUUC9IVFRQUyBSZXF1ZXN0cyIsICJSZWFkICYgV3JpdGUgb3BlcmF0aW9ucyIpCgonIExvYWQgYmFsYW5jZXIgZGlzdHJpYnV0aW9uClJlbChsb2FkX2JhbGFuY2VyLCBhcHBfc2VydmVyXzEsICJSb3V0ZXMgUmVxdWVzdHMiLCAiQmFsYW5jZWQgZGlzdHJpYnV0aW9uIikKUmVsKGxvYWRfYmFsYW5jZXIsIGFwcF9zZXJ2ZXJfMiwgIlJvdXRlcyBSZXF1ZXN0cyIsICJCYWxhbmNlZCBkaXN0cmlidXRpb24iKQoKJyBXcml0ZSBvcGVyYXRpb25zICh0byBwcmltYXJ5KQpSZWwoYXBwX3NlcnZlcl8xLCBwcmltYXJ5X2RiLCAiV3JpdGUgUXVlcmllcyIsICJJTlNFUlQvVVBEQVRFL0RFTEVURSIpClJlbChhcHBfc2VydmVyXzIsIHByaW1hcnlfZGIsICJXcml0ZSBRdWVyaWVzIiwgIklOU0VSVC9VUERBVEUvREVMRVRFIikKCicgUmVhZCBvcGVyYXRpb25zICh0byByZXBsaWNhKQpSZWwoYXBwX3NlcnZlcl8xLCByZWFkX3JlcGxpY2EsICJSZWFkIFF1ZXJpZXMiLCAiU0VMRUNUIHN0YXRlbWVudHMiKQpSZWwoYXBwX3NlcnZlcl8yLCByZWFkX3JlcGxpY2EsICJSZWFkIFF1ZXJpZXMiLCAiU0VMRUNUIHN0YXRlbWVudHMiKQoKJyBDcml0aWNhbCByZWFkcyAodG8gcHJpbWFyeSBmb3IgY29uc2lzdGVuY3kpClJlbChhcHBfc2VydmVyXzEsIHByaW1hcnlfZGIsICJDcml0aWNhbCBSZWFkcyIsICJDb25zaXN0ZW50IGRhdGEgcmVxdWlyZWQiKQpSZWwoYXBwX3NlcnZlcl8yLCBwcmltYXJ5X2RiLCAiQ3JpdGljYWwgUmVhZHMiLCAiQ29uc2lzdGVudCBkYXRhIHJlcXVpcmVkIikKCicgRGF0YWJhc2UgcmVwbGljYXRpb24KUmVsKHByaW1hcnlfZGIsIHJlcGxpY2F0aW9uX3NlcnZpY2UsICJXQUwgU3RyZWFtaW5nIiwgIlRyYW5zYWN0aW9uIGxvZ3MiKQpSZWwocmVwbGljYXRpb25fc2VydmljZSwgcmVhZF9yZXBsaWNhLCAiRGF0YSBTeW5jIiwgIlJlcGxpY2F0ZWQgZGF0YSIpCgonIFJlc3BvbnNlIGZsb3dzClJlbChwcmltYXJ5X2RiLCBhcHBfc2VydmVyXzEsICJXcml0ZSBSZXN1bHRzIiwgIlN1Y2Nlc3MvRXJyb3IiKQpSZWwocHJpbWFyeV9kYiwgYXBwX3NlcnZlcl8yLCAiV3JpdGUgUmVzdWx0cyIsICJTdWNjZXNzL0Vycm9yIikKUmVsKHJlYWRfcmVwbGljYSwgYXBwX3NlcnZlcl8xLCAiUmVhZCBSZXN1bHRzIiwgIlF1ZXJ5IGRhdGEiKQpSZWwocmVhZF9yZXBsaWNhLCBhcHBfc2VydmVyXzIsICJSZWFkIFJlc3VsdHMiLCAiUXVlcnkgZGF0YSIpCgpub3RlIHJpZ2h0IG9mIGFwcF9zZXJ2ZXJfMQogICoqQXBwbGljYXRpb24gTG9naWM6KioKICDigKIgUm91dGUgd3JpdGVzIHRvIHByaW1hcnkgREIKICDigKIgUm91dGUgcmVhZHMgdG8gcmVwbGljYSBEQgogIOKAoiBIYW5kbGUgcmVwbGljYXRpb24gbGFnCiAg4oCiIEZhbGxiYWNrIHRvIHByaW1hcnkgaWYgbmVlZGVkCiAg4oCiIENvbm5lY3Rpb24gcG9vbCBtYW5hZ2VtZW50CmVuZCBub3RlCgpub3RlIHJpZ2h0IG9mIHByaW1hcnlfZGIKICAqKlByaW1hcnkgRGF0YWJhc2U6KioKICDigKIgQWxsIHdyaXRlIG9wZXJhdGlvbnMKICDigKIgQ3JpdGljYWwgY29uc2lzdGVudCByZWFkcwogIOKAoiBUcmFuc2FjdGlvbiBjb29yZGluYXRpb24KICDigKIgV0FMIGdlbmVyYXRpb24KICDigKIgQmFja3VwIHNvdXJjZQplbmQgbm90ZQoKbm90ZSByaWdodCBvZiByZWFkX3JlcGxpY2EKICAqKlJlYWQgUmVwbGljYToqKgogIOKAoiBSZWFkLW9ubHkgb3BlcmF0aW9ucwogIOKAoiBFdmVudHVhbGx5IGNvbnNpc3RlbnQKICDigKIgUmVkdWNlZCBwcmltYXJ5IGxvYWQKICDigKIgR2VvZ3JhcGhpYyBkaXN0cmlidXRpb24KICDigKIgUmVwb3J0aW5nIHF1ZXJpZXMKZW5kIG5vdGUKCm5vdGUgcmlnaHQgb2YgcmVwbGljYXRpb25fc2VydmljZQogICoqUmVwbGljYXRpb24gRmVhdHVyZXM6KioKICDigKIgU3RyZWFtaW5nIHJlcGxpY2F0aW9uCiAg4oCiIEFzeW5jaHJvbm91cyBieSBkZWZhdWx0CiAg4oCiIExhZyBtb25pdG9yaW5nCiAg4oCiIEF1dG9tYXRpYyBmYWlsb3ZlciByZWFkeQogIOKAoiBQb2ludC1pbi10aW1lIHJlY292ZXJ5CmVuZCBub3RlCgpub3RlIHRvcCBvZiBkYXRhX2JvdW5kYXJ5CiAgKipTY2FsaW5nIEJlbmVmaXRzOioqCiAg4oCiIERpc3RyaWJ1dGVkIHJlYWQgbG9hZAogIOKAoiBJbXByb3ZlZCByZWFkIHBlcmZvcm1hbmNlCiAg4oCiIFJlZHVjZWQgcHJpbWFyeSBEQiBwcmVzc3VyZQogIOKAoiBCZXR0ZXIgcmVzb3VyY2UgdXRpbGl6YXRpb24KZW5kIG5vdGUKCm5vdGUgYm90dG9tIG9mIGRhdGFfYm91bmRhcnkKICAqKkNvbnNpZGVyYXRpb25zOioqCiAg4oCiIFJlcGxpY2F0aW9uIGxhZwogIOKAoiBFdmVudHVhbCBjb25zaXN0ZW5jeQogIOKAoiBBcHBsaWNhdGlvbiBjb21wbGV4aXR5CiAg4oCiIE1vbml0b3JpbmcgcmVxdWlyZW1lbnRzCmVuZCBub3RlCgpAZW5kdW1s;" vertex="1" parent="1">
          <mxGeometry x="40" y="40" width="400" height="300" as="geometry" />
        </mxCell>
      </root>
    </mxGraphModel>
  </diagram>
</mxfile>